<mxfile host="Electron" modified="2024-04-27T13:09:25.798Z" agent="Mozilla/5.0 (Windows NT 10.0; Win64; x64) AppleWebKit/537.36 (KHTML, like Gecko) draw.io/24.1.0 Chrome/120.0.6099.109 Electron/28.1.0 Safari/537.36" etag="tOC8FZr7NOFemkpdPjbT" version="24.1.0" type="device">
  <diagram name="第 1 页" id="u9KqPJunNxrojm_yaEQv">
    <mxGraphModel dx="842" dy="568" grid="1" gridSize="10" guides="1" tooltips="1" connect="1" arrows="1" fold="1" page="1" pageScale="1" pageWidth="3300" pageHeight="2339" math="0" shadow="0">
      <root>
        <mxCell id="0" />
        <mxCell id="1" parent="0" />
        <mxCell id="FucSAIseuZLs7TKSs5Ux-5" style="edgeStyle=orthogonalEdgeStyle;rounded=0;orthogonalLoop=1;jettySize=auto;html=1;entryX=1;entryY=0.5;entryDx=0;entryDy=0;endArrow=none;endFill=0;" edge="1" parent="1" source="FucSAIseuZLs7TKSs5Ux-1" target="FucSAIseuZLs7TKSs5Ux-2">
          <mxGeometry relative="1" as="geometry" />
        </mxCell>
        <mxCell id="FucSAIseuZLs7TKSs5Ux-1" value="state = op1" style="text;html=1;align=center;verticalAlign=middle;resizable=0;points=[];autosize=1;strokeColor=none;fillColor=none;" vertex="1" parent="1">
          <mxGeometry x="540" y="310" width="80" height="30" as="geometry" />
        </mxCell>
        <mxCell id="FucSAIseuZLs7TKSs5Ux-6" value="" style="group" vertex="1" connectable="0" parent="1">
          <mxGeometry x="560" y="200" width="40" height="80" as="geometry" />
        </mxCell>
        <mxCell id="FucSAIseuZLs7TKSs5Ux-2" value="" style="shape=trapezoid;perimeter=trapezoidPerimeter;whiteSpace=wrap;html=1;fixedSize=1;direction=south;" vertex="1" parent="FucSAIseuZLs7TKSs5Ux-6">
          <mxGeometry width="40" height="80" as="geometry" />
        </mxCell>
        <mxCell id="FucSAIseuZLs7TKSs5Ux-3" value="T" style="text;html=1;align=center;verticalAlign=middle;resizable=0;points=[];autosize=1;strokeColor=none;fillColor=none;" vertex="1" parent="FucSAIseuZLs7TKSs5Ux-6">
          <mxGeometry y="10" width="30" height="30" as="geometry" />
        </mxCell>
        <mxCell id="FucSAIseuZLs7TKSs5Ux-4" value="F" style="text;html=1;align=center;verticalAlign=middle;resizable=0;points=[];autosize=1;strokeColor=none;fillColor=none;" vertex="1" parent="FucSAIseuZLs7TKSs5Ux-6">
          <mxGeometry y="40" width="30" height="30" as="geometry" />
        </mxCell>
        <mxCell id="FucSAIseuZLs7TKSs5Ux-7" value="" style="group" vertex="1" connectable="0" parent="1">
          <mxGeometry x="560" y="80" width="40" height="80" as="geometry" />
        </mxCell>
        <mxCell id="FucSAIseuZLs7TKSs5Ux-8" value="" style="shape=trapezoid;perimeter=trapezoidPerimeter;whiteSpace=wrap;html=1;fixedSize=1;direction=south;" vertex="1" parent="FucSAIseuZLs7TKSs5Ux-7">
          <mxGeometry width="40" height="80" as="geometry" />
        </mxCell>
        <mxCell id="FucSAIseuZLs7TKSs5Ux-9" value="T" style="text;html=1;align=center;verticalAlign=middle;resizable=0;points=[];autosize=1;strokeColor=none;fillColor=none;" vertex="1" parent="FucSAIseuZLs7TKSs5Ux-7">
          <mxGeometry y="10" width="30" height="30" as="geometry" />
        </mxCell>
        <mxCell id="FucSAIseuZLs7TKSs5Ux-10" value="F" style="text;html=1;align=center;verticalAlign=middle;resizable=0;points=[];autosize=1;strokeColor=none;fillColor=none;" vertex="1" parent="FucSAIseuZLs7TKSs5Ux-7">
          <mxGeometry y="40" width="30" height="30" as="geometry" />
        </mxCell>
        <mxCell id="FucSAIseuZLs7TKSs5Ux-24" style="edgeStyle=orthogonalEdgeStyle;rounded=0;orthogonalLoop=1;jettySize=auto;html=1;endArrow=none;endFill=0;" edge="1" parent="1" source="FucSAIseuZLs7TKSs5Ux-13">
          <mxGeometry relative="1" as="geometry">
            <mxPoint x="760" y="186" as="targetPoint" />
          </mxGeometry>
        </mxCell>
        <mxCell id="FucSAIseuZLs7TKSs5Ux-13" value="+" style="whiteSpace=wrap;html=1;" vertex="1" parent="1">
          <mxGeometry x="680" y="171" width="30" height="30" as="geometry" />
        </mxCell>
        <mxCell id="FucSAIseuZLs7TKSs5Ux-14" style="edgeStyle=orthogonalEdgeStyle;rounded=0;orthogonalLoop=1;jettySize=auto;html=1;exitX=0.5;exitY=0;exitDx=0;exitDy=0;entryX=0;entryY=0.5;entryDx=0;entryDy=0;endArrow=none;endFill=0;" edge="1" parent="1" source="FucSAIseuZLs7TKSs5Ux-8" target="FucSAIseuZLs7TKSs5Ux-13">
          <mxGeometry relative="1" as="geometry">
            <Array as="points">
              <mxPoint x="640" y="120" />
              <mxPoint x="640" y="180" />
              <mxPoint x="680" y="180" />
            </Array>
          </mxGeometry>
        </mxCell>
        <mxCell id="FucSAIseuZLs7TKSs5Ux-15" style="edgeStyle=orthogonalEdgeStyle;rounded=0;orthogonalLoop=1;jettySize=auto;html=1;entryX=0;entryY=0.75;entryDx=0;entryDy=0;endArrow=none;endFill=0;" edge="1" parent="1" source="FucSAIseuZLs7TKSs5Ux-2" target="FucSAIseuZLs7TKSs5Ux-13">
          <mxGeometry relative="1" as="geometry" />
        </mxCell>
        <mxCell id="FucSAIseuZLs7TKSs5Ux-17" style="edgeStyle=orthogonalEdgeStyle;rounded=0;orthogonalLoop=1;jettySize=auto;html=1;endArrow=none;endFill=0;" edge="1" parent="1" source="FucSAIseuZLs7TKSs5Ux-16" target="FucSAIseuZLs7TKSs5Ux-9">
          <mxGeometry relative="1" as="geometry" />
        </mxCell>
        <mxCell id="FucSAIseuZLs7TKSs5Ux-16" value="n1_reg" style="text;html=1;align=center;verticalAlign=middle;resizable=0;points=[];autosize=1;strokeColor=none;fillColor=none;" vertex="1" parent="1">
          <mxGeometry x="420" y="90" width="60" height="30" as="geometry" />
        </mxCell>
        <mxCell id="FucSAIseuZLs7TKSs5Ux-19" style="edgeStyle=orthogonalEdgeStyle;rounded=0;orthogonalLoop=1;jettySize=auto;html=1;endArrow=none;endFill=0;" edge="1" parent="1" source="FucSAIseuZLs7TKSs5Ux-18" target="FucSAIseuZLs7TKSs5Ux-3">
          <mxGeometry relative="1" as="geometry" />
        </mxCell>
        <mxCell id="FucSAIseuZLs7TKSs5Ux-18" value="n2_reg" style="text;html=1;align=center;verticalAlign=middle;resizable=0;points=[];autosize=1;strokeColor=none;fillColor=none;" vertex="1" parent="1">
          <mxGeometry x="420" y="210" width="60" height="30" as="geometry" />
        </mxCell>
        <mxCell id="FucSAIseuZLs7TKSs5Ux-21" value="" style="edgeStyle=orthogonalEdgeStyle;rounded=0;orthogonalLoop=1;jettySize=auto;html=1;endArrow=none;endFill=0;" edge="1" parent="1" source="FucSAIseuZLs7TKSs5Ux-20" target="FucSAIseuZLs7TKSs5Ux-10">
          <mxGeometry relative="1" as="geometry" />
        </mxCell>
        <mxCell id="FucSAIseuZLs7TKSs5Ux-20" value="ni_reg" style="text;html=1;align=center;verticalAlign=middle;resizable=0;points=[];autosize=1;strokeColor=none;fillColor=none;" vertex="1" parent="1">
          <mxGeometry x="420" y="121" width="60" height="30" as="geometry" />
        </mxCell>
        <mxCell id="FucSAIseuZLs7TKSs5Ux-22" value="1...1111" style="text;html=1;align=center;verticalAlign=middle;resizable=0;points=[];autosize=1;strokeColor=none;fillColor=none;" vertex="1" parent="1">
          <mxGeometry x="420" y="245" width="60" height="30" as="geometry" />
        </mxCell>
        <mxCell id="FucSAIseuZLs7TKSs5Ux-23" style="edgeStyle=orthogonalEdgeStyle;rounded=0;orthogonalLoop=1;jettySize=auto;html=1;entryX=0;entryY=0.667;entryDx=0;entryDy=0;entryPerimeter=0;endArrow=none;endFill=0;" edge="1" parent="1" source="FucSAIseuZLs7TKSs5Ux-22" target="FucSAIseuZLs7TKSs5Ux-4">
          <mxGeometry relative="1" as="geometry" />
        </mxCell>
        <mxCell id="FucSAIseuZLs7TKSs5Ux-25" value="op1 selection before n1_next" style="text;html=1;align=center;verticalAlign=middle;resizable=0;points=[];autosize=1;strokeColor=none;fillColor=none;" vertex="1" parent="1">
          <mxGeometry x="760" y="160" width="180" height="30" as="geometry" />
        </mxCell>
        <mxCell id="FucSAIseuZLs7TKSs5Ux-26" value="op2 selection before ni_next" style="text;html=1;align=center;verticalAlign=middle;resizable=0;points=[];autosize=1;strokeColor=none;fillColor=none;" vertex="1" parent="1">
          <mxGeometry x="765" y="190" width="170" height="30" as="geometry" />
        </mxCell>
      </root>
    </mxGraphModel>
  </diagram>
</mxfile>
